<svg xmlns="http://www.w3.org/2000/svg" width="648.33" height="264.13" viewBox="50.19 12.22 648.33 264.13" fill="none"><g transform="translate(-228.17,0)"><path d="M299.828 21.208C295.924 21.208 292.596 22.52 289.844 25.144C287.156 27.704 285.012 31.352 283.412 36.088C283.348 36.28 283.156 36.376 282.836 36.376C282.516 36.312 282.356 36.184 282.356 35.992C282.484 35.096 282.612 33.848 282.74 32.248C282.868 30.584 282.996 28.792 283.124 26.872C283.316 24.952 283.444 23.096 283.508 21.304C283.636 19.512 283.7 18.04 283.7 16.888C283.7 16.568 283.86 16.408 284.18 16.408C284.564 16.408 284.756 16.568 284.756 16.888C284.756 17.528 285.076 18.008 285.716 18.328C286.42 18.584 287.188 18.776 288.02 18.904C288.916 18.968 289.652 19 290.228 19C295.732 19.192 302.164 19.288 309.524 19.288C314.004 19.288 317.588 19.256 320.276 19.192C322.964 19.064 325.556 19 328.052 19C330.356 19 332.084 18.872 333.236 18.616C334.452 18.296 335.22 17.624 335.54 16.6C335.604 16.344 335.796 16.216 336.116 16.216C336.5 16.216 336.692 16.344 336.692 16.6C336.564 17.624 336.436 19.064 336.308 20.92C336.244 22.712 336.148 24.632 336.02 26.68C335.956 28.664 335.892 30.52 335.828 32.248C335.764 33.912 335.732 35.16 335.732 35.992C335.732 36.184 335.572 36.28 335.252 36.28C334.932 36.28 334.74 36.184 334.676 35.992C333.716 30.936 331.892 27.224 329.204 24.856C326.58 22.424 323.38 21.208 319.604 21.208C318.324 21.208 317.332 21.4 316.628 21.784C315.988 22.104 315.54 22.68 315.284 23.512C315.092 24.344 314.996 25.496 314.996 26.968V71.224C314.996 73.08 315.188 74.488 315.572 75.448C315.956 76.408 316.692 77.048 317.78 77.368C318.932 77.688 320.66 77.848 322.964 77.848C323.156 77.848 323.252 78.04 323.252 78.424C323.252 78.808 323.156 79 322.964 79C321.172 79 319.156 78.968 316.916 78.904C314.676 78.84 312.212 78.808 309.524 78.808C306.964 78.808 304.564 78.84 302.324 78.904C300.084 78.968 298.036 79 296.18 79C295.988 79 295.892 78.808 295.892 78.424C295.892 78.04 295.988 77.848 296.18 77.848C298.42 77.848 300.116 77.688 301.268 77.368C302.42 77.048 303.188 76.408 303.572 75.448C304.02 74.488 304.244 73.08 304.244 71.224V26.776C304.244 25.368 304.116 24.28 303.86 23.512C303.668 22.68 303.252 22.104 302.612 21.784C301.972 21.4 301.044 21.208 299.828 21.208ZM392.331 26.968C392.331 25.112 392.139 23.704 391.755 22.744C391.435 21.784 390.699 21.112 389.547 20.728C388.395 20.344 386.667 20.152 384.363 20.152C384.171 20.152 384.075 19.96 384.075 19.576C384.075 19.192 384.171 19 384.363 19C386.027 19 387.915 19.064 390.027 19.192C392.203 19.256 394.763 19.288 397.707 19.288C400.011 19.288 402.283 19.256 404.523 19.192C406.827 19.064 408.811 19 410.475 19C410.667 19 410.763 19.192 410.763 19.576C410.763 19.96 410.667 20.152 410.475 20.152C408.363 20.152 406.763 20.344 405.675 20.728C404.587 21.048 403.851 21.688 403.467 22.648C403.147 23.544 402.987 24.92 402.987 26.776V71.224C402.987 73.08 403.147 74.488 403.467 75.448C403.851 76.408 404.587 77.048 405.675 77.368C406.763 77.688 408.363 77.848 410.475 77.848C410.667 77.848 410.763 78.04 410.763 78.424C410.763 78.808 410.667 79 410.475 79C408.811 79 406.827 78.968 404.523 78.904C402.283 78.84 400.011 78.808 397.707 78.808C394.763 78.808 392.203 78.84 390.027 78.904C387.915 78.968 386.027 79 384.363 79C384.171 79 384.075 78.808 384.075 78.424C384.075 78.04 384.171 77.848 384.363 77.848C386.667 77.848 388.395 77.688 389.547 77.368C390.699 77.048 391.435 76.408 391.755 75.448C392.139 74.488 392.331 73.08 392.331 71.224V26.968ZM355.659 49.144V46.456H397.227V49.144H355.659ZM350.667 71.224V26.776C350.667 24.92 350.475 23.544 350.091 22.648C349.771 21.688 349.067 21.048 347.979 20.728C346.955 20.344 345.387 20.152 343.275 20.152C343.083 20.152 342.987 19.96 342.987 19.576C342.987 19.192 343.083 19 343.275 19C344.939 19 346.827 19.064 348.939 19.192C351.051 19.256 353.259 19.288 355.563 19.288C358.507 19.288 361.067 19.256 363.243 19.192C365.483 19.064 367.499 19 369.291 19C369.419 19 369.483 19.192 369.483 19.576C369.483 19.96 369.419 20.152 369.291 20.152C367.051 20.152 365.355 20.344 364.203 20.728C363.051 21.112 362.283 21.784 361.899 22.744C361.515 23.704 361.323 25.112 361.323 26.968V71.224C361.323 73.08 361.515 74.488 361.899 75.448C362.283 76.408 363.051 77.048 364.203 77.368C365.355 77.688 367.051 77.848 369.291 77.848C369.419 77.848 369.483 78.04 369.483 78.424C369.483 78.808 369.419 79 369.291 79C367.435 79 365.419 78.968 363.243 78.904C361.067 78.84 358.507 78.808 355.563 78.808C353.259 78.808 351.019 78.84 348.843 78.904C346.667 78.968 344.747 79 343.083 79C342.955 79 342.891 78.808 342.891 78.424C342.891 78.04 342.955 77.848 343.083 77.848C345.259 77.848 346.859 77.688 347.883 77.368C348.971 77.048 349.707 76.408 350.091 75.448C350.475 74.488 350.667 73.08 350.667 71.224ZM459.884 79H417.452C417.26 79 417.164 78.808 417.164 78.424C417.164 78.04 417.26 77.848 417.452 77.848C419.436 77.848 420.908 77.688 421.868 77.368C422.828 77.048 423.468 76.408 423.788 75.448C424.108 74.488 424.268 73.08 424.268 71.224V26.776C424.268 24.92 424.108 23.544 423.788 22.648C423.468 21.688 422.828 21.048 421.868 20.728C420.908 20.344 419.436 20.152 417.452 20.152C417.26 20.152 417.164 19.96 417.164 19.576C417.164 19.192 417.26 19 417.452 19H458.156C458.796 19 459.116 19.288 459.116 19.864L459.308 32.632C459.308 32.76 459.148 32.856 458.828 32.92C458.508 32.984 458.284 32.92 458.156 32.728C457.132 28.952 455.404 26.2 452.972 24.472C450.54 22.68 447.34 21.784 443.372 21.784H440.492C439.212 21.784 438.156 21.976 437.324 22.36C436.492 22.68 435.884 23.224 435.5 23.992C435.116 24.76 434.924 25.72 434.924 26.872V70.84C434.924 72.056 435.084 73.08 435.404 73.912C435.724 74.744 436.204 75.352 436.844 75.736C437.484 76.12 438.316 76.312 439.34 76.312H442.508C447.5 76.312 451.5 75.288 454.508 73.24C457.516 71.192 459.724 68.024 461.132 63.736C461.196 63.544 461.388 63.512 461.708 63.64C462.092 63.704 462.284 63.8 462.284 63.928C462.028 65.784 461.804 67.992 461.612 70.552C461.42 73.048 461.324 75.384 461.324 77.56C461.324 78.52 460.844 79 459.884 79ZM454.508 57.592C454.508 54.968 453.516 52.92 451.532 51.448C449.548 49.912 446.636 49.144 442.796 49.144H429.836V46.456H442.892C446.668 46.456 449.516 45.816 451.436 44.536C453.42 43.192 454.412 41.4 454.412 39.16C454.412 38.968 454.572 38.872 454.892 38.872C455.276 38.872 455.468 38.968 455.468 39.16C455.468 41.272 455.436 42.936 455.372 44.152C455.372 45.304 455.372 46.52 455.372 47.8C455.372 49.4 455.404 50.968 455.468 52.504C455.596 54.04 455.66 55.736 455.66 57.592C455.66 57.72 455.468 57.784 455.084 57.784C454.7 57.784 454.508 57.72 454.508 57.592Z" fill="#B89B5E"/></g><path d="M90.4764 113.944C92.3964 113.944 94.3804 114.04 96.4284 114.232C98.5404 114.424 100.524 114.712 102.38 115.096C104.236 115.48 105.804 115.96 107.084 116.536C107.66 116.728 108.012 116.984 108.14 117.304C108.332 117.56 108.46 118.04 108.524 118.744L109.772 132.088C109.772 132.28 109.612 132.408 109.292 132.472C108.972 132.536 108.748 132.44 108.62 132.184C106.828 127 104.268 123 100.94 120.184C97.6764 117.368 93.6764 115.96 88.9404 115.96C84.5884 115.96 80.6844 117.144 77.2284 119.512C73.8364 121.816 71.1484 125.112 69.1644 129.4C67.2444 133.688 66.2844 138.808 66.2844 144.76C66.2844 149.24 66.8604 153.304 68.0124 156.952C69.1644 160.536 70.7964 163.608 72.9084 166.168C75.0204 168.728 77.5164 170.712 80.3964 172.12C83.2764 173.464 86.4444 174.136 89.9004 174.136C94.4444 174.136 98.1884 172.92 101.132 170.488C104.14 167.992 106.956 164.056 109.58 158.68C109.708 158.488 109.9 158.424 110.156 158.488C110.476 158.552 110.636 158.68 110.636 158.872L109.196 170.776C109.132 171.544 109.004 172.056 108.812 172.312C108.684 172.504 108.332 172.728 107.756 172.984C104.684 174.072 101.612 174.872 98.5404 175.384C95.5324 175.896 92.6524 176.152 89.9004 176.152C82.9884 176.152 76.8444 174.872 71.4684 172.312C66.0924 169.688 61.8684 166.072 58.7964 161.464C55.7244 156.792 54.1884 151.448 54.1884 145.432C54.1884 140.824 55.0844 136.6 56.8764 132.76C58.7324 128.856 61.2924 125.528 64.5564 122.776C67.8844 119.96 71.7564 117.784 76.1724 116.248C80.5884 114.712 85.3564 113.944 90.4764 113.944ZM149.964 176.152C145.356 176.152 141.164 175.352 137.388 173.752C133.676 172.088 130.476 169.816 127.788 166.936C125.164 164.056 123.116 160.76 121.644 157.048C120.236 153.272 119.532 149.272 119.532 145.048C119.532 139.864 120.524 135.32 122.508 131.416C124.556 127.512 127.244 124.28 130.572 121.72C133.9 119.096 137.548 117.144 141.516 115.864C145.484 114.584 149.42 113.944 153.324 113.944C158.06 113.944 162.284 114.808 165.996 116.536C169.772 118.2 172.972 120.472 175.596 123.352C178.22 126.232 180.204 129.496 181.548 133.144C182.956 136.792 183.66 140.536 183.66 144.376C183.66 148.856 182.764 153.016 180.972 156.856C179.18 160.696 176.716 164.056 173.58 166.936C170.508 169.816 166.924 172.088 162.828 173.752C158.796 175.352 154.508 176.152 149.964 176.152ZM153.132 173.752C156.716 173.752 159.916 172.728 162.732 170.68C165.548 168.632 167.756 165.624 169.356 161.656C171.02 157.688 171.852 152.856 171.852 147.16C171.852 141.272 170.956 136.024 169.164 131.416C167.372 126.808 164.812 123.192 161.484 120.568C158.156 117.88 154.156 116.536 149.484 116.536C143.66 116.536 139.18 118.744 136.044 123.16C132.908 127.576 131.34 133.688 131.34 141.496C131.34 146.168 131.884 150.488 132.972 154.456C134.06 158.36 135.564 161.784 137.484 164.728C139.468 167.608 141.772 169.848 144.396 171.448C147.084 172.984 149.996 173.752 153.132 173.752ZM200.52 162.808V117.208L203.4 117.4V162.808C203.4 166.2 204.104 168.888 205.512 170.872C206.92 172.856 208.872 173.848 211.368 173.848C211.496 173.848 211.56 174.04 211.56 174.424C211.56 174.808 211.496 175 211.368 175C209.96 175 208.488 174.968 206.952 174.904C205.48 174.84 203.848 174.808 202.056 174.808C200.136 174.808 198.248 174.84 196.392 174.904C194.6 174.968 192.936 175 191.4 175C191.208 175 191.112 174.808 191.112 174.424C191.112 174.04 191.208 173.848 191.4 173.848C194.216 173.848 196.424 172.856 198.024 170.872C199.688 168.888 200.52 166.2 200.52 162.808ZM249.48 176.44C249.48 176.632 249.32 176.728 249 176.728C248.744 176.792 248.552 176.792 248.424 176.728L201.096 122.872C198.792 120.248 196.84 118.488 195.24 117.592C193.64 116.632 192.04 116.152 190.44 116.152C190.312 116.152 190.248 115.96 190.248 115.576C190.248 115.192 190.312 115 190.44 115C191.72 115 193.032 115.032 194.376 115.096C195.72 115.16 196.968 115.192 198.12 115.192C200.424 115.192 202.504 115.16 204.36 115.096C206.216 115.032 207.656 115 208.68 115C209.512 115 210.12 115.384 210.504 116.152C210.952 116.856 211.944 118.136 213.48 119.992L248.712 160.6L249.48 176.44ZM249.48 127.288V176.44L246.696 173.56V127.288C246.696 123.896 245.992 121.208 244.584 119.224C243.176 117.176 241.224 116.152 238.728 116.152C238.6 116.152 238.536 115.96 238.536 115.576C238.536 115.192 238.6 115 238.728 115C240.136 115 241.576 115.064 243.048 115.192C244.584 115.256 246.248 115.288 248.04 115.288C249.768 115.288 251.464 115.256 253.128 115.192C254.792 115.064 256.328 115 257.736 115C257.864 115 257.928 115.192 257.928 115.576C257.928 115.96 257.864 116.152 257.736 116.152C255.176 116.152 253.16 117.176 251.688 119.224C250.216 121.208 249.48 123.896 249.48 127.288ZM280.234 117.208C276.33 117.208 273.002 118.52 270.25 121.144C267.562 123.704 265.418 127.352 263.818 132.088C263.754 132.28 263.562 132.376 263.242 132.376C262.922 132.312 262.762 132.184 262.762 131.992C262.89 131.096 263.018 129.848 263.146 128.248C263.274 126.584 263.402 124.792 263.53 122.872C263.722 120.952 263.85 119.096 263.914 117.304C264.042 115.512 264.106 114.04 264.106 112.888C264.106 112.568 264.266 112.408 264.586 112.408C264.97 112.408 265.162 112.568 265.162 112.888C265.162 113.528 265.482 114.008 266.122 114.328C266.826 114.584 267.594 114.776 268.426 114.904C269.322 114.968 270.058 115 270.634 115C276.138 115.192 282.57 115.288 289.93 115.288C294.41 115.288 297.994 115.256 300.682 115.192C303.37 115.064 305.962 115 308.458 115C310.762 115 312.49 114.872 313.642 114.616C314.858 114.296 315.626 113.624 315.946 112.6C316.01 112.344 316.202 112.216 316.522 112.216C316.906 112.216 317.098 112.344 317.098 112.6C316.97 113.624 316.842 115.064 316.714 116.92C316.65 118.712 316.554 120.632 316.426 122.68C316.362 124.664 316.298 126.52 316.234 128.248C316.17 129.912 316.138 131.16 316.138 131.992C316.138 132.184 315.978 132.28 315.658 132.28C315.338 132.28 315.146 132.184 315.082 131.992C314.122 126.936 312.298 123.224 309.61 120.856C306.986 118.424 303.786 117.208 300.01 117.208C298.73 117.208 297.738 117.4 297.034 117.784C296.394 118.104 295.946 118.68 295.69 119.512C295.498 120.344 295.402 121.496 295.402 122.968V167.224C295.402 169.08 295.594 170.488 295.978 171.448C296.362 172.408 297.098 173.048 298.186 173.368C299.338 173.688 301.066 173.848 303.37 173.848C303.562 173.848 303.658 174.04 303.658 174.424C303.658 174.808 303.562 175 303.37 175C301.578 175 299.562 174.968 297.322 174.904C295.082 174.84 292.618 174.808 289.93 174.808C287.37 174.808 284.97 174.84 282.73 174.904C280.49 174.968 278.442 175 276.586 175C276.394 175 276.298 174.808 276.298 174.424C276.298 174.04 276.394 173.848 276.586 173.848C278.826 173.848 280.522 173.688 281.674 173.368C282.826 173.048 283.594 172.408 283.978 171.448C284.426 170.488 284.65 169.08 284.65 167.224V122.776C284.65 121.368 284.522 120.28 284.266 119.512C284.074 118.68 283.658 118.104 283.018 117.784C282.378 117.4 281.45 117.208 280.234 117.208ZM371.489 175C370.529 175 368.961 173.816 366.785 171.448C364.673 169.016 362.113 165.528 359.105 160.984C356.097 156.44 352.705 151 348.929 144.664L357.761 141.976C362.881 149.72 367.233 155.928 370.817 160.6C374.465 165.272 377.697 168.664 380.513 170.776C383.329 172.824 386.017 173.848 388.577 173.848C388.705 173.848 388.769 174.04 388.769 174.424C388.769 174.808 388.705 175 388.577 175C384.097 175 380.449 175 377.633 175C374.817 175 372.769 175 371.489 175ZM350.849 114.712C356.737 114.712 361.249 115.8 364.385 117.976C367.585 120.088 369.185 123.064 369.185 126.904C369.185 130.68 368.129 134.04 366.017 136.984C363.905 139.864 361.185 142.104 357.857 143.704C354.593 145.304 351.137 146.104 347.489 146.104C346.593 146.104 345.665 146.104 344.705 146.104C343.809 146.104 342.977 146.072 342.209 146.008V167.224C342.209 169.08 342.369 170.488 342.689 171.448C343.009 172.408 343.649 173.048 344.609 173.368C345.569 173.688 347.041 173.848 349.025 173.848C349.153 173.848 349.217 174.04 349.217 174.424C349.217 174.808 349.153 175 349.025 175C347.361 175 345.505 174.968 343.457 174.904C341.409 174.84 339.169 174.808 336.737 174.808C334.433 174.808 332.225 174.84 330.113 174.904C328.065 174.968 326.209 175 324.545 175C324.353 175 324.257 174.808 324.257 174.424C324.257 174.04 324.353 173.848 324.545 173.848C326.529 173.848 328.001 173.688 328.961 173.368C329.921 173.048 330.561 172.408 330.881 171.448C331.265 170.488 331.457 169.08 331.457 167.224V122.776C331.457 120.92 331.297 119.544 330.977 118.648C330.657 117.688 330.017 117.048 329.057 116.728C328.097 116.344 326.625 116.152 324.641 116.152C324.513 116.152 324.449 115.96 324.449 115.576C324.449 115.192 324.513 115 324.641 115C326.305 115 328.161 115.064 330.209 115.192C332.257 115.256 334.433 115.288 336.737 115.288C338.849 115.288 341.153 115.192 343.649 115C346.209 114.808 348.609 114.712 350.849 114.712ZM358.241 130.552C358.241 126.776 357.857 123.896 357.089 121.912C356.321 119.928 355.265 118.584 353.921 117.88C352.577 117.112 351.041 116.728 349.313 116.728C346.753 116.728 344.929 117.208 343.841 118.168C342.753 119.128 342.209 120.728 342.209 122.968V143.32C343.105 143.448 344.065 143.544 345.089 143.608C346.113 143.672 347.009 143.704 347.777 143.704C351.553 143.704 354.241 142.68 355.841 140.632C357.441 138.52 358.241 135.16 358.241 130.552ZM404.057 153.016L405.497 150.328H433.145L433.817 153.016H404.057ZM456.473 173.848C456.793 173.848 456.953 174.04 456.953 174.424C456.953 174.808 456.793 175 456.473 175C454.553 175 452.537 174.936 450.425 174.808C448.377 174.68 446.393 174.616 444.473 174.616C442.297 174.616 440.409 174.68 438.809 174.808C437.209 174.936 435.417 175 433.433 175C433.177 175 433.049 174.808 433.049 174.424C433.049 174.04 433.177 173.848 433.433 173.848C436.057 173.848 437.561 173.336 437.945 172.312C438.393 171.224 437.817 169.112 436.217 165.976L416.729 127.48L421.433 119.224L402.329 161.368C400.601 165.208 400.569 168.248 402.233 170.488C403.897 172.728 406.521 173.848 410.105 173.848C410.425 173.848 410.585 174.04 410.585 174.424C410.585 174.808 410.425 175 410.105 175C408.185 175 406.425 174.936 404.825 174.808C403.225 174.68 401.209 174.616 398.777 174.616C396.281 174.616 394.265 174.68 392.729 174.808C391.257 174.936 389.433 175 387.257 175C387.001 175 386.873 174.808 386.873 174.424C386.873 174.04 387.001 173.848 387.257 173.848C388.985 173.848 390.457 173.496 391.673 172.792C392.953 172.024 394.201 170.68 395.417 168.76C396.697 166.776 398.137 163.992 399.737 160.408L420.569 114.616C420.633 114.424 420.921 114.328 421.433 114.328C421.945 114.264 422.233 114.36 422.297 114.616L446.297 161.848C447.833 164.856 449.145 167.256 450.233 169.048C451.385 170.776 452.441 172.024 453.401 172.792C454.425 173.496 455.449 173.848 456.473 173.848ZM507.239 175C506.279 175 504.711 173.816 502.535 171.448C500.423 169.016 497.863 165.528 494.855 160.984C491.847 156.44 488.455 151 484.679 144.664L493.511 141.976C498.631 149.72 502.983 155.928 506.567 160.6C510.215 165.272 513.447 168.664 516.263 170.776C519.079 172.824 521.767 173.848 524.327 173.848C524.455 173.848 524.519 174.04 524.519 174.424C524.519 174.808 524.455 175 524.327 175C519.847 175 516.199 175 513.383 175C510.567 175 508.519 175 507.239 175ZM486.599 114.712C492.487 114.712 496.999 115.8 500.135 117.976C503.335 120.088 504.935 123.064 504.935 126.904C504.935 130.68 503.879 134.04 501.767 136.984C499.655 139.864 496.935 142.104 493.607 143.704C490.343 145.304 486.887 146.104 483.239 146.104C482.343 146.104 481.415 146.104 480.455 146.104C479.559 146.104 478.727 146.072 477.959 146.008V167.224C477.959 169.08 478.119 170.488 478.439 171.448C478.759 172.408 479.399 173.048 480.359 173.368C481.319 173.688 482.791 173.848 484.775 173.848C484.903 173.848 484.967 174.04 484.967 174.424C484.967 174.808 484.903 175 484.775 175C483.111 175 481.255 174.968 479.207 174.904C477.159 174.84 474.919 174.808 472.487 174.808C470.183 174.808 467.975 174.84 465.863 174.904C463.815 174.968 461.959 175 460.295 175C460.103 175 460.007 174.808 460.007 174.424C460.007 174.04 460.103 173.848 460.295 173.848C462.279 173.848 463.751 173.688 464.711 173.368C465.671 173.048 466.311 172.408 466.631 171.448C467.015 170.488 467.207 169.08 467.207 167.224V122.776C467.207 120.92 467.047 119.544 466.727 118.648C466.407 117.688 465.767 117.048 464.807 116.728C463.847 116.344 462.375 116.152 460.391 116.152C460.263 116.152 460.199 115.96 460.199 115.576C460.199 115.192 460.263 115 460.391 115C462.055 115 463.911 115.064 465.959 115.192C468.007 115.256 470.183 115.288 472.487 115.288C474.599 115.288 476.903 115.192 479.399 115C481.959 114.808 484.359 114.712 486.599 114.712ZM493.991 130.552C493.991 126.776 493.607 123.896 492.839 121.912C492.071 119.928 491.015 118.584 489.671 117.88C488.327 117.112 486.791 116.728 485.063 116.728C482.503 116.728 480.679 117.208 479.591 118.168C478.503 119.128 477.959 120.728 477.959 122.968V143.32C478.855 143.448 479.815 143.544 480.839 143.608C481.863 143.672 482.759 143.704 483.527 143.704C487.303 143.704 489.991 142.68 491.591 140.632C493.191 138.52 493.991 135.16 493.991 130.552ZM545.183 167.224C545.183 169.08 545.343 170.488 545.663 171.448C545.983 172.408 546.623 173.048 547.583 173.368C548.543 173.688 550.015 173.848 551.999 173.848C552.191 173.848 552.287 174.04 552.287 174.424C552.287 174.808 552.191 175 551.999 175C550.335 175 548.479 174.968 546.431 174.904C544.383 174.84 542.143 174.808 539.711 174.808C537.407 174.808 535.199 174.84 533.087 174.904C530.975 174.968 529.087 175 527.423 175C527.295 175 527.231 174.808 527.231 174.424C527.231 174.04 527.295 173.848 527.423 173.848C529.407 173.848 530.879 173.688 531.839 173.368C532.863 173.048 533.535 172.408 533.855 171.448C534.239 170.488 534.431 169.08 534.431 167.224V122.776C534.431 120.92 534.239 119.544 533.855 118.648C533.535 117.688 532.863 117.048 531.839 116.728C530.879 116.344 529.407 116.152 527.423 116.152C527.295 116.152 527.231 115.96 527.231 115.576C527.231 115.192 527.295 115 527.423 115C529.087 115 530.975 115.064 533.087 115.192C535.199 115.256 537.407 115.288 539.711 115.288C542.143 115.288 544.383 115.256 546.431 115.192C548.543 115.064 550.399 115 551.999 115C552.191 115 552.287 115.192 552.287 115.576C552.287 115.96 552.191 116.152 551.999 116.152C550.079 116.152 548.607 116.344 547.583 116.728C546.623 117.112 545.983 117.784 545.663 118.744C545.343 119.704 545.183 121.112 545.183 122.968V167.224ZM572.619 153.016L574.059 150.328H601.707L602.379 153.016H572.619ZM625.035 173.848C625.355 173.848 625.515 174.04 625.515 174.424C625.515 174.808 625.355 175 625.035 175C623.115 175 621.099 174.936 618.987 174.808C616.939 174.68 614.955 174.616 613.035 174.616C610.859 174.616 608.971 174.68 607.371 174.808C605.771 174.936 603.979 175 601.995 175C601.739 175 601.611 174.808 601.611 174.424C601.611 174.04 601.739 173.848 601.995 173.848C604.619 173.848 606.123 173.336 606.507 172.312C606.955 171.224 606.379 169.112 604.779 165.976L585.291 127.48L589.995 119.224L570.891 161.368C569.163 165.208 569.131 168.248 570.795 170.488C572.459 172.728 575.083 173.848 578.667 173.848C578.987 173.848 579.147 174.04 579.147 174.424C579.147 174.808 578.987 175 578.667 175C576.747 175 574.987 174.936 573.387 174.808C571.787 174.68 569.771 174.616 567.339 174.616C564.843 174.616 562.827 174.68 561.291 174.808C559.819 174.936 557.995 175 555.819 175C555.563 175 555.435 174.808 555.435 174.424C555.435 174.04 555.563 173.848 555.819 173.848C557.547 173.848 559.019 173.496 560.235 172.792C561.515 172.024 562.763 170.68 563.979 168.76C565.259 166.776 566.699 163.992 568.299 160.408L589.131 114.616C589.195 114.424 589.483 114.328 589.995 114.328C590.507 114.264 590.795 114.36 590.859 114.616L614.859 161.848C616.395 164.856 617.707 167.256 618.795 169.048C619.947 170.776 621.003 172.024 621.963 172.792C622.987 173.496 624.011 173.848 625.035 173.848ZM637.114 162.808V117.208L639.994 117.4V162.808C639.994 166.2 640.698 168.888 642.106 170.872C643.514 172.856 645.466 173.848 647.962 173.848C648.09 173.848 648.154 174.04 648.154 174.424C648.154 174.808 648.09 175 647.962 175C646.554 175 645.082 174.968 643.546 174.904C642.074 174.84 640.442 174.808 638.65 174.808C636.73 174.808 634.842 174.84 632.986 174.904C631.194 174.968 629.53 175 627.994 175C627.802 175 627.706 174.808 627.706 174.424C627.706 174.04 627.802 173.848 627.994 173.848C630.81 173.848 633.018 172.856 634.618 170.872C636.282 168.888 637.114 166.2 637.114 162.808ZM686.074 176.44C686.074 176.632 685.914 176.728 685.594 176.728C685.338 176.792 685.146 176.792 685.018 176.728L637.69 122.872C635.386 120.248 633.434 118.488 631.834 117.592C630.234 116.632 628.634 116.152 627.034 116.152C626.906 116.152 626.842 115.96 626.842 115.576C626.842 115.192 626.906 115 627.034 115C628.314 115 629.626 115.032 630.97 115.096C632.314 115.16 633.562 115.192 634.714 115.192C637.018 115.192 639.098 115.16 640.954 115.096C642.81 115.032 644.25 115 645.274 115C646.106 115 646.714 115.384 647.098 116.152C647.546 116.856 648.538 118.136 650.074 119.992L685.306 160.6L686.074 176.44ZM686.074 127.288V176.44L683.29 173.56V127.288C683.29 123.896 682.586 121.208 681.178 119.224C679.77 117.176 677.818 116.152 675.322 116.152C675.194 116.152 675.13 115.96 675.13 115.576C675.13 115.192 675.194 115 675.322 115C676.73 115 678.17 115.064 679.642 115.192C681.178 115.256 682.842 115.288 684.634 115.288C686.362 115.288 688.058 115.256 689.722 115.192C691.386 115.064 692.922 115 694.33 115C694.458 115 694.522 115.192 694.522 115.576C694.522 115.96 694.458 116.152 694.33 116.152C691.77 116.152 689.754 117.176 688.282 119.224C686.81 121.208 686.074 123.896 686.074 127.288Z" fill="#B89B5E"/><g transform="translate(-11.44,0)"><path d="M94.2335 271.384C92.1855 271.384 89.6255 271.288 86.5535 271.096C83.4815 270.904 80.6655 270.808 78.1055 270.808C75.8015 270.808 73.5935 270.84 71.4815 270.904C69.3695 270.968 67.4815 271 65.8175 271C65.6895 271 65.6255 270.808 65.6255 270.424C65.6255 270.04 65.6895 269.848 65.8175 269.848C67.8015 269.848 69.2735 269.688 70.2335 269.368C71.2575 269.048 71.9295 268.408 72.2495 267.448C72.6335 266.488 72.8255 265.08 72.8255 263.224V218.776C72.8255 216.92 72.6655 215.544 72.3455 214.648C72.0255 213.688 71.3535 213.048 70.3295 212.728C69.3695 212.344 67.9295 212.152 66.0095 212.152C65.8175 212.152 65.7215 211.96 65.7215 211.576C65.7215 211.192 65.8175 211 66.0095 211C67.6735 211 69.5295 211.064 71.5775 211.192C73.6255 211.256 75.8335 211.288 78.2015 211.288C80.5055 211.288 83.0335 211.224 85.7855 211.096C88.5375 210.904 90.9055 210.808 92.8895 210.808C99.5455 210.808 105.338 212.088 110.266 214.648C115.194 217.208 119.034 220.696 121.786 225.112C124.538 229.528 125.914 234.488 125.914 239.992C125.914 244.792 125.082 249.144 123.418 253.048C121.754 256.888 119.45 260.184 116.506 262.936C113.562 265.624 110.17 267.704 106.33 269.176C102.554 270.648 98.5215 271.384 94.2335 271.384ZM93.2735 269.176C97.3055 269.176 100.89 268.152 104.026 266.104C107.162 263.992 109.626 260.92 111.417 256.888C113.21 252.856 114.106 247.928 114.106 242.104C114.106 236.664 113.274 231.736 111.61 227.32C109.946 222.904 107.61 219.416 104.602 216.856C101.594 214.232 98.0095 212.92 93.8495 212.92C90.1375 212.92 87.4815 213.272 85.8815 213.976C84.2815 214.68 83.4815 216.344 83.4815 218.968V262.168C83.4815 264.536 84.0895 266.296 85.3055 267.448C86.5855 268.6 89.2415 269.176 93.2735 269.176ZM176.993 271H134.561C134.369 271 134.273 270.808 134.273 270.424C134.273 270.04 134.369 269.848 134.561 269.848C136.545 269.848 138.017 269.688 138.977 269.368C139.937 269.048 140.577 268.408 140.897 267.448C141.217 266.488 141.377 265.08 141.377 263.224V218.776C141.377 216.92 141.217 215.544 140.897 214.648C140.577 213.688 139.937 213.048 138.977 212.728C138.017 212.344 136.545 212.152 134.561 212.152C134.369 212.152 134.273 211.96 134.273 211.576C134.273 211.192 134.369 211 134.561 211H175.265C175.905 211 176.225 211.288 176.225 211.864L176.417 224.632C176.417 224.76 176.257 224.856 175.937 224.92C175.617 224.984 175.393 224.92 175.265 224.728C174.241 220.952 172.513 218.2 170.081 216.472C167.649 214.68 164.449 213.784 160.481 213.784H157.601C156.321 213.784 155.265 213.976 154.433 214.36C153.601 214.68 152.993 215.224 152.609 215.992C152.225 216.76 152.033 217.72 152.033 218.872V262.84C152.033 264.056 152.193 265.08 152.513 265.912C152.833 266.744 153.313 267.352 153.953 267.736C154.593 268.12 155.425 268.312 156.449 268.312H159.617C164.609 268.312 168.609 267.288 171.617 265.24C174.625 263.192 176.833 260.024 178.241 255.736C178.305 255.544 178.497 255.512 178.817 255.64C179.201 255.704 179.393 255.8 179.393 255.928C179.137 257.784 178.913 259.992 178.721 262.552C178.529 265.048 178.433 267.384 178.433 269.56C178.433 270.52 177.953 271 176.993 271ZM171.617 249.592C171.617 246.968 170.625 244.92 168.641 243.448C166.657 241.912 163.745 241.144 159.905 241.144H146.945V238.456H160.001C163.777 238.456 166.625 237.816 168.545 236.536C170.529 235.192 171.521 233.4 171.521 231.16C171.521 230.968 171.681 230.872 172.001 230.872C172.385 230.872 172.577 230.968 172.577 231.16C172.577 233.272 172.545 234.936 172.481 236.152C172.481 237.304 172.481 238.52 172.481 239.8C172.481 241.4 172.513 242.968 172.577 244.504C172.705 246.04 172.769 247.736 172.769 249.592C172.769 249.72 172.577 249.784 172.193 249.784C171.809 249.784 171.617 249.72 171.617 249.592ZM212.97 238.84L214.026 237.112C218.442 237.112 222.25 237.816 225.45 239.224C228.714 240.632 231.242 242.584 233.034 245.08C234.826 247.512 235.722 250.36 235.722 253.624C235.722 256.952 234.762 259.96 232.842 262.648C230.922 265.336 228.266 267.48 224.874 269.08C221.546 270.616 217.77 271.384 213.546 271.384C211.818 271.384 209.61 271.288 206.922 271.096C204.298 270.904 201.898 270.808 199.722 270.808C197.418 270.808 195.21 270.84 193.098 270.904C191.05 270.968 189.194 271 187.53 271C187.338 271 187.242 270.808 187.242 270.424C187.242 270.04 187.338 269.848 187.53 269.848C189.322 269.848 190.698 269.688 191.658 269.368C192.682 269.048 193.386 268.408 193.77 267.448C194.218 266.488 194.442 265.08 194.442 263.224V218.776C194.442 216.92 194.25 215.544 193.866 214.648C193.482 213.688 192.778 213.048 191.754 212.728C190.794 212.344 189.418 212.152 187.626 212.152C187.498 212.152 187.434 211.96 187.434 211.576C187.434 211.192 187.498 211 187.626 211C189.29 211 191.146 211.064 193.194 211.192C195.242 211.256 197.418 211.288 199.722 211.288C201.578 211.288 203.498 211.192 205.482 211C207.466 210.808 209.482 210.712 211.53 210.712C215.37 210.712 218.634 211.192 221.322 212.152C224.074 213.048 226.186 214.424 227.658 216.28C229.13 218.072 229.866 220.344 229.866 223.096C229.866 226.616 228.458 229.848 225.642 232.792C222.826 235.672 218.602 237.688 212.97 238.84ZM210.09 212.824C208.874 212.824 207.882 213.016 207.114 213.4C206.41 213.784 205.898 214.424 205.578 215.32C205.322 216.152 205.194 217.368 205.194 218.968V237.784L201.642 237.112C203.754 237.176 205.482 237.24 206.826 237.304C208.17 237.304 208.906 237.304 209.034 237.304C212.49 237.304 215.082 236.024 216.81 233.464C218.538 230.84 219.402 227.672 219.402 223.96C219.402 221.528 219.018 219.48 218.25 217.816C217.546 216.152 216.49 214.904 215.082 214.072C213.738 213.24 212.074 212.824 210.09 212.824ZM211.914 268.984C216.33 268.984 219.53 267.864 221.514 265.624C223.498 263.32 224.49 260.088 224.49 255.928C224.49 251.192 223.338 247.352 221.034 244.408C218.794 241.4 215.178 239.896 210.186 239.896C209.546 239.896 208.458 239.928 206.922 239.992C205.386 239.992 203.754 240.152 202.026 240.472L205.194 239.32V263.224C205.194 264.504 205.322 265.592 205.578 266.488C205.898 267.32 206.538 267.96 207.498 268.408C208.458 268.792 209.93 268.984 211.914 268.984ZM257.104 249.016L258.544 246.328H286.192L286.864 249.016H257.104ZM309.52 269.848C309.84 269.848 310 270.04 310 270.424C310 270.808 309.84 271 309.52 271C307.6 271 305.584 270.936 303.472 270.808C301.424 270.68 299.44 270.616 297.52 270.616C295.344 270.616 293.456 270.68 291.856 270.808C290.256 270.936 288.464 271 286.48 271C286.224 271 286.096 270.808 286.096 270.424C286.096 270.04 286.224 269.848 286.48 269.848C289.104 269.848 290.608 269.336 290.992 268.312C291.44 267.224 290.864 265.112 289.264 261.976L269.776 223.48L274.48 215.224L255.376 257.368C253.648 261.208 253.616 264.248 255.28 266.488C256.944 268.728 259.568 269.848 263.152 269.848C263.472 269.848 263.632 270.04 263.632 270.424C263.632 270.808 263.472 271 263.152 271C261.232 271 259.472 270.936 257.872 270.808C256.272 270.68 254.256 270.616 251.824 270.616C249.328 270.616 247.312 270.68 245.776 270.808C244.304 270.936 242.48 271 240.303 271C240.047 271 239.919 270.808 239.919 270.424C239.919 270.04 240.047 269.848 240.303 269.848C242.032 269.848 243.504 269.496 244.72 268.792C246 268.024 247.248 266.68 248.464 264.76C249.744 262.776 251.184 259.992 252.784 256.408L273.616 210.616C273.68 210.424 273.968 210.328 274.48 210.328C274.992 210.264 275.28 210.36 275.344 210.616L299.344 257.848C300.88 260.856 302.192 263.256 303.28 265.048C304.432 266.776 305.488 268.024 306.448 268.792C307.472 269.496 308.496 269.848 309.52 269.848ZM323.968 213.208C320.064 213.208 316.736 214.52 313.984 217.144C311.296 219.704 309.152 223.352 307.552 228.088C307.488 228.28 307.296 228.376 306.976 228.376C306.656 228.312 306.496 228.184 306.496 227.992C306.624 227.096 306.752 225.848 306.88 224.248C307.008 222.584 307.136 220.792 307.264 218.872C307.456 216.952 307.584 215.096 307.648 213.304C307.776 211.512 307.84 210.04 307.84 208.888C307.84 208.568 308 208.408 308.32 208.408C308.704 208.408 308.896 208.568 308.896 208.888C308.896 209.528 309.216 210.008 309.856 210.328C310.56 210.584 311.328 210.776 312.16 210.904C313.056 210.968 313.792 211 314.368 211C319.872 211.192 326.304 211.288 333.664 211.288C338.144 211.288 341.728 211.256 344.416 211.192C347.104 211.064 349.696 211 352.192 211C354.496 211 356.224 210.872 357.376 210.616C358.592 210.296 359.36 209.624 359.68 208.6C359.744 208.344 359.936 208.216 360.256 208.216C360.64 208.216 360.832 208.344 360.832 208.6C360.704 209.624 360.576 211.064 360.448 212.92C360.384 214.712 360.288 216.632 360.16 218.68C360.096 220.664 360.032 222.52 359.968 224.248C359.904 225.912 359.872 227.16 359.872 227.992C359.872 228.184 359.712 228.28 359.392 228.28C359.072 228.28 358.88 228.184 358.816 227.992C357.856 222.936 356.032 219.224 353.344 216.856C350.72 214.424 347.52 213.208 343.744 213.208C342.464 213.208 341.472 213.4 340.768 213.784C340.128 214.104 339.68 214.68 339.424 215.512C339.232 216.344 339.136 217.496 339.136 218.968V263.224C339.136 265.08 339.328 266.488 339.712 267.448C340.096 268.408 340.832 269.048 341.92 269.368C343.072 269.688 344.8 269.848 347.104 269.848C347.296 269.848 347.392 270.04 347.392 270.424C347.392 270.808 347.296 271 347.104 271C345.312 271 343.296 270.968 341.056 270.904C338.816 270.84 336.352 270.808 333.664 270.808C331.104 270.808 328.704 270.84 326.464 270.904C324.224 270.968 322.176 271 320.32 271C320.128 271 320.032 270.808 320.032 270.424C320.032 270.04 320.128 269.848 320.32 269.848C322.56 269.848 324.256 269.688 325.408 269.368C326.56 269.048 327.328 268.408 327.712 267.448C328.16 266.488 328.384 265.08 328.384 263.224V218.776C328.384 217.368 328.256 216.28 328 215.512C327.808 214.68 327.392 214.104 326.752 213.784C326.112 213.4 325.184 213.208 323.968 213.208ZM410.712 271H368.28C368.088 271 367.992 270.808 367.992 270.424C367.992 270.04 368.088 269.848 368.28 269.848C370.264 269.848 371.736 269.688 372.696 269.368C373.656 269.048 374.296 268.408 374.616 267.448C374.936 266.488 375.096 265.08 375.096 263.224V218.776C375.096 216.92 374.936 215.544 374.616 214.648C374.296 213.688 373.656 213.048 372.696 212.728C371.736 212.344 370.264 212.152 368.28 212.152C368.088 212.152 367.992 211.96 367.992 211.576C367.992 211.192 368.088 211 368.28 211H408.984C409.624 211 409.944 211.288 409.944 211.864L410.136 224.632C410.136 224.76 409.976 224.856 409.656 224.92C409.336 224.984 409.112 224.92 408.984 224.728C407.96 220.952 406.232 218.2 403.8 216.472C401.368 214.68 398.168 213.784 394.2 213.784H391.32C390.04 213.784 388.984 213.976 388.152 214.36C387.32 214.68 386.712 215.224 386.328 215.992C385.944 216.76 385.752 217.72 385.752 218.872V262.84C385.752 264.056 385.912 265.08 386.232 265.912C386.552 266.744 387.032 267.352 387.672 267.736C388.312 268.12 389.144 268.312 390.168 268.312H393.336C398.328 268.312 402.328 267.288 405.336 265.24C408.344 263.192 410.552 260.024 411.96 255.736C412.024 255.544 412.216 255.512 412.536 255.64C412.92 255.704 413.112 255.8 413.112 255.928C412.856 257.784 412.632 259.992 412.44 262.552C412.248 265.048 412.152 267.384 412.152 269.56C412.152 270.52 411.672 271 410.712 271ZM405.336 249.592C405.336 246.968 404.344 244.92 402.36 243.448C400.376 241.912 397.464 241.144 393.624 241.144H380.664V238.456H393.72C397.496 238.456 400.344 237.816 402.264 236.536C404.248 235.192 405.24 233.4 405.24 231.16C405.24 230.968 405.4 230.872 405.72 230.872C406.104 230.872 406.296 230.968 406.296 231.16C406.296 233.272 406.264 234.936 406.2 236.152C406.2 237.304 406.2 238.52 406.2 239.8C406.2 241.4 406.232 242.968 406.296 244.504C406.424 246.04 406.488 247.736 406.488 249.592C406.488 249.72 406.296 249.784 405.912 249.784C405.528 249.784 405.336 249.72 405.336 249.592ZM480.805 209.944C482.725 209.944 484.709 210.04 486.757 210.232C488.869 210.424 490.853 210.712 492.708 211.096C494.565 211.48 496.133 211.96 497.413 212.536C497.989 212.728 498.341 212.984 498.469 213.304C498.661 213.56 498.789 214.04 498.853 214.744L500.101 228.088C500.101 228.28 499.941 228.408 499.621 228.472C499.301 228.536 499.077 228.44 498.949 228.184C497.157 223 494.597 219 491.269 216.184C488.005 213.368 484.005 211.96 479.269 211.96C474.917 211.96 471.013 213.144 467.557 215.512C464.165 217.816 461.477 221.112 459.493 225.4C457.573 229.688 456.613 234.808 456.613 240.76C456.613 245.24 457.189 249.304 458.341 252.952C459.493 256.536 461.125 259.608 463.237 262.168C465.349 264.728 467.845 266.712 470.725 268.12C473.605 269.464 476.773 270.136 480.229 270.136C484.773 270.136 488.517 268.92 491.461 266.488C494.469 263.992 497.285 260.056 499.909 254.68C500.037 254.488 500.229 254.424 500.485 254.488C500.805 254.552 500.965 254.68 500.965 254.872L499.525 266.776C499.461 267.544 499.333 268.056 499.141 268.312C499.013 268.504 498.661 268.728 498.085 268.984C495.013 270.072 491.941 270.872 488.869 271.384C485.861 271.896 482.981 272.152 480.229 272.152C473.317 272.152 467.173 270.872 461.797 268.312C456.421 265.688 452.197 262.072 449.125 257.464C446.053 252.792 444.517 247.448 444.517 241.432C444.517 236.824 445.413 232.6 447.205 228.76C449.061 224.856 451.621 221.528 454.885 218.776C458.213 215.96 462.085 213.784 466.501 212.248C470.917 210.712 475.685 209.944 480.805 209.944ZM525.604 218.872V262.84C525.604 264.376 525.732 265.56 525.988 266.392C526.244 267.16 526.756 267.672 527.524 267.928C528.356 268.184 529.54 268.312 531.076 268.312H534.34C539.332 268.312 543.652 266.968 547.3 264.28C550.948 261.592 553.38 258.008 554.596 253.528C554.66 253.336 554.852 253.272 555.172 253.336C555.492 253.4 555.652 253.528 555.652 253.72C555.46 255.832 555.268 258.392 555.076 261.4C554.884 264.344 554.788 267.064 554.788 269.56C554.788 270.52 554.308 271 553.348 271H508.036C507.908 271 507.844 270.808 507.844 270.424C507.844 270.04 507.908 269.848 508.036 269.848C510.02 269.848 511.492 269.688 512.452 269.368C513.412 269.048 514.052 268.408 514.372 267.448C514.756 266.488 514.948 265.08 514.948 263.224V218.776C514.948 216.92 514.756 215.544 514.372 214.648C514.052 213.688 513.412 213.048 512.452 212.728C511.492 212.344 510.02 212.152 508.036 212.152C507.908 212.152 507.844 211.96 507.844 211.576C507.844 211.192 507.908 211 508.036 211C509.572 211 511.396 211.064 513.508 211.192C515.684 211.256 517.924 211.288 520.228 211.288C522.66 211.288 524.9 211.256 526.948 211.192C528.996 211.064 530.82 211 532.42 211C532.612 211 532.708 211.192 532.708 211.576C532.708 211.96 532.612 212.152 532.42 212.152C530.5 212.152 529.028 212.344 528.004 212.728C527.044 213.048 526.404 213.688 526.084 214.648C525.764 215.608 525.604 217.016 525.604 218.872ZM612.285 223.288C612.285 219.896 611.485 217.208 609.885 215.224C608.349 213.176 606.173 212.152 603.357 212.152C603.229 212.152 603.165 211.96 603.165 211.576C603.165 211.192 603.229 211 603.357 211C604.957 211 606.589 211.064 608.253 211.192C609.981 211.256 611.837 211.288 613.821 211.288C615.549 211.288 617.245 211.256 618.909 211.192C620.573 211.064 622.109 211 623.517 211C623.645 211 623.709 211.192 623.709 211.576C623.709 211.96 623.645 212.152 623.517 212.152C620.957 212.152 618.973 213.176 617.565 215.224C616.221 217.208 615.549 219.896 615.549 223.288V249.976C615.549 254.52 614.557 258.488 612.573 261.88C610.589 265.208 607.805 267.8 604.221 269.656C600.637 271.448 596.445 272.344 591.645 272.344C586.973 272.344 582.781 271.448 579.069 269.656C575.421 267.864 572.541 265.304 570.429 261.976C568.381 258.584 567.357 254.52 567.357 249.784V218.776C567.357 216.92 567.197 215.544 566.877 214.648C566.557 213.688 565.885 213.048 564.861 212.728C563.901 212.344 562.461 212.152 560.541 212.152C560.349 212.152 560.253 211.96 560.253 211.576C560.253 211.192 560.349 211 560.541 211C562.205 211 564.061 211.064 566.109 211.192C568.157 211.256 570.333 211.288 572.637 211.288C575.069 211.288 577.309 211.256 579.357 211.192C581.405 211.064 583.229 211 584.829 211C585.021 211 585.117 211.192 585.117 211.576C585.117 211.96 585.021 212.152 584.829 212.152C582.909 212.152 581.469 212.344 580.509 212.728C579.549 213.112 578.877 213.784 578.493 214.744C578.173 215.704 578.013 217.112 578.013 218.968V246.424C578.013 254.296 579.581 259.992 582.717 263.512C585.853 267.032 590.045 268.792 595.293 268.792C600.605 268.792 604.765 267.192 607.773 263.992C610.781 260.728 612.285 256.088 612.285 250.072V223.288ZM654.345 238.84L655.401 237.112C659.817 237.112 663.625 237.816 666.825 239.224C670.089 240.632 672.617 242.584 674.409 245.08C676.201 247.512 677.097 250.36 677.097 253.624C677.097 256.952 676.137 259.96 674.217 262.648C672.297 265.336 669.641 267.48 666.249 269.08C662.921 270.616 659.145 271.384 654.921 271.384C653.193 271.384 650.985 271.288 648.297 271.096C645.673 270.904 643.273 270.808 641.097 270.808C638.793 270.808 636.585 270.84 634.473 270.904C632.425 270.968 630.569 271 628.905 271C628.713 271 628.617 270.808 628.617 270.424C628.617 270.04 628.713 269.848 628.905 269.848C630.697 269.848 632.073 269.688 633.033 269.368C634.057 269.048 634.761 268.408 635.145 267.448C635.593 266.488 635.817 265.08 635.817 263.224V218.776C635.817 216.92 635.625 215.544 635.241 214.648C634.857 213.688 634.153 213.048 633.129 212.728C632.169 212.344 630.793 212.152 629.001 212.152C628.873 212.152 628.809 211.96 628.809 211.576C628.809 211.192 628.873 211 629.001 211C630.665 211 632.521 211.064 634.569 211.192C636.617 211.256 638.793 211.288 641.097 211.288C642.953 211.288 644.873 211.192 646.857 211C648.841 210.808 650.857 210.712 652.905 210.712C656.745 210.712 660.009 211.192 662.697 212.152C665.449 213.048 667.561 214.424 669.033 216.28C670.505 218.072 671.241 220.344 671.241 223.096C671.241 226.616 669.833 229.848 667.017 232.792C664.201 235.672 659.977 237.688 654.345 238.84ZM651.465 212.824C650.249 212.824 649.257 213.016 648.489 213.4C647.785 213.784 647.273 214.424 646.953 215.32C646.697 216.152 646.569 217.368 646.569 218.968V237.784L643.017 237.112C645.129 237.176 646.857 237.24 648.201 237.304C649.545 237.304 650.281 237.304 650.409 237.304C653.865 237.304 656.457 236.024 658.185 233.464C659.913 230.84 660.777 227.672 660.777 223.96C660.777 221.528 660.393 219.48 659.625 217.816C658.921 216.152 657.865 214.904 656.457 214.072C655.113 213.24 653.449 212.824 651.465 212.824ZM653.289 268.984C657.705 268.984 660.905 267.864 662.889 265.624C664.873 263.32 665.865 260.088 665.865 255.928C665.865 251.192 664.713 247.352 662.409 244.408C660.169 241.4 656.553 239.896 651.561 239.896C650.921 239.896 649.833 239.928 648.297 239.992C646.761 239.992 645.129 240.152 643.401 240.472L646.569 239.32V263.224C646.569 264.504 646.697 265.592 646.953 266.488C647.273 267.32 647.913 267.96 648.873 268.408C649.833 268.792 651.305 268.984 653.289 268.984Z" fill="#ffffff"/></g></svg>